#!OML:ASF H:\Terrain\Patient Classification 1\Takeo\Monday\TakeoMonday.ASF
:FULLY-SPECIFIED
:DEGREES
845
root 9.54717 17.2146 -3.06924 -14.4294 -34.7604 4.49548
lowerback 3.39909 -1.89697 -1.31183
upperback 4.14503 -2.63401 2.22231
thorax 2.52465 -1.4104 3.04873
lowerneck -7.27359 7.12675 2.62101
upperneck -5.78378 9.11711 -4.95236
head -0.226535 4.47158 -1.77136
rclavicle -2.15433e-014 2.22639e-014
rhumerus 45.3897 27.3052 -80.695
rradius 65.9766
rwrist -32.6196
rhand -51.1382 41.0645
rfingers 7.12502
rthumb -23.6812 12.5032
lclavicle -2.15433e-014 2.22639e-014
lhumerus 77.7329 -26.5769 47.1893
lradius 68.4376
lwrist 19.1085
lhand -40.257 24.0977
lfingers 7.12502
lthumb -13.2155 53.6588
rfemur 10.4175 4.25168 18.0254
rtibia 27.9716
rfoot -23.5107 -13.0227
rtoes -10.4216
lfemur -8.56135 7.91331 -16.042
ltibia 34.6904
lfoot -9.32887 18.77
ltoes -3.32997
846
root 9.567 17.2152 -3.08021 -14.0473 -34.3794 4.43307
lowerback 3.74606 -1.89245 -1.80351
upperback 4.09462 -2.64321 2.49913
thorax 2.31746 -1.43099 3.62589
lowerneck -7.40316 7.10276 2.18318
upperneck -5.55196 9.11855 -5.18735
head -0.141263 4.47766 -1.76202
rclavicle -1.13034e-013 3.02153e-014
rhumerus 44.9447 28.1196 -80.5415
rradius 65.9834
rwrist -33.3367
rhand -51.1281 40.1242
rfingers 7.12502
rthumb -23.6715 11.5617
lclavicle -1.13034e-013 3.02153e-014
lhumerus 76.9878 -26.583 48.0661
lradius 67.7279
lwrist 19.1615
lhand -40.3186 23.9972
lfingers 7.12502
lthumb -13.2748 53.5545
rfemur 9.93307 4.26121 18.0708
rtibia 28.1678
rfoot -23.5551 -13.3625
rtoes -9.93929
lfemur -9.09896 7.74517 -16.176
ltibia 34.6469
lfoot -9.09658 18.607
ltoes -3.45056
847
root 9.58665 17.2193 -3.08603 -13.6296 -34.0122 4.26321
lowerback 4.08358 -1.87482 -2.16314
upperback 4.09531 -2.63615 2.77885
thorax 2.16163 -1.44063 4.13193
lowerneck -7.68976 7.17739 1.3779
upperneck -5.18563 9.29453 -4.7582
head -0.0369185 4.57472 -1.47015
rclavicle -1.72818e-014 -1.11319e-014
rhumerus 44.4882 28.978 -80.3292
rradius 66.0856
rwrist -33.8506
rhand -51.027 39.8327
rfingers 7.12502
rthumb -23.5745 11.2577
lclavicle -1.72818e-014 -1.11319e-014
lhumerus 76.3084 -26.5485 48.9868
lradius 66.9852
lwrist 19.3153
lhand -40.2727 24.3054
lfingers 7.12502
lthumb -13.2307 53.8655
rfemur 9.53372 4.08163 18.13
rtibia 28.2777
rfoot -23.5531 -13.5483
rtoes -9.70753
lfemur -9.62476 7.68565 -16.1991
ltibia 34.6493
lfoot -8.98675 18.3572
ltoes -3.27804
848
root 9.60612 17.2232 -3.0918 -13.3275 -33.6032 4.11054
lowerback 4.37143 -1.83545 -2.26692
upperback 4.23663 -2.59351 2.83247
thorax 2.15161 -1.42619 4.25401
lowerneck -8.00215 7.27072 0.485129
upperneck -4.79407 9.51507 -3.68224
head 0.0371048 4.69866 -0.969054
rclavicle -7.5942e-015 4.77083e-015
rhumerus 44.1887 29.5766 -80.359
rradius 65.8242
rwrist -34.2156
rhand -51.0033 39.0135
rfingers 7.12502
rthumb -23.5518 10.4355
lclavicle -7.5942e-015 4.77083e-015
lhumerus 75.8903 -26.5564 49.4018
lradius 66.3018
lwrist 19.5499
lhand -39.8425 24.9063
lfingers 7.12502
lthumb -12.8159 54.4929
rfemur 9.32765 3.70273 18.1005
rtibia 28.2171
rfoot -23.5223 -13.6059
rtoes -9.5328
lfemur -10.0671 7.59601 -16.2402
ltibia 34.7722
lfoot -8.91376 18.0886
ltoes -3.87178
849
root 9.62532 17.2259 -3.09325 -12.8028 -33.2181 3.61064
lowerback 4.56993 -1.77979 -1.94403
upperback 4.36918 -2.51634 2.88932
thorax 2.15863 -1.38288 4.13436
lowerneck -8.03768 7.2554 0.126024
upperneck -4.68393 9.53406 -3.2447
head 0.035201 4.71638 -0.776101
rclavicle 8.68565e-014 -2.06736e-014
rhumerus 43.8476 30.0002 -80.2586
rradius 65.5781
rwrist -34.9277
rhand -51.3443 38.6949
rfingers 7.12502
rthumb -23.8788 10.1594
lclavicle 8.68565e-014 -2.06736e-014
lhumerus 75.4828 -26.761 49.8072
lradius 65.6029
lwrist 19.1518
lhand -39.5627 26.0548
lfingers 7.12502
lthumb -12.5462 55.6582
rfemur 9.16403 3.28712 18.3812
rtibia 28.0286
rfoot -23.4509 -13.632
rtoes -9.07469
lfemur -10.5817 7.46128 -15.9682
ltibia 34.993
lfoot -8.70113 17.7777
ltoes -4.66566
850
root 9.64614 17.233 -3.09627 -12.0341 -32.858 2.84333
lowerback 4.78682 -1.74685 -1.3562
upperback 4.426 -2.45828 2.95166
thorax 2.06729 -1.33889 3.87306
lowerneck -7.8783 7.19404 0.424729
upperneck -4.87998 9.42128 -3.57823
head -0.0198347 4.65786 -0.937364
rclavicle -7.9812e-014 -2.38542e-014
rhumerus 43.3384 30.3781 -80.4715
rradius 65.4413
rwrist -35.7261
rhand -51.5538 38.6986
rfingers 7.12502
rthumb -24.0797 10.1895
lclavicle -7.9812e-014 -2.38542e-014
lhumerus 75.0552 -27.0071 50.0038
lradius 64.9153
lwrist 18.6242
lhand -40.3819 28.0119
lfingers 7.12502
lthumb -13.3359 57.5651
rfemur 8.87871 2.99079 18.9793
rtibia 27.8328
rfoot -23.3515 -13.828
rtoes -9.46386
lfemur -11.2558 7.27819 -15.4513
ltibia 35.2331
lfoot -8.55346 17.4671
ltoes -3.9099
851
root 9.66962 17.2341 -3.10923 -11.3982 -32.3989 2.28537
lowerback 5.17987 -1.68263 -1.0255
upperback 4.44768 -2.36127 2.98557
thorax 1.85022 -1.27997 3.73288
lowerneck -7.4986 7.17472 -0.0201288
upperneck -5.22407 9.43093 -2.9358
head -0.242531 4.68044 -0.697079
rclavicle -6.93758e-014 -6.36111e-015
rhumerus 42.6229 30.6909 -81.0241
rradius 65.304
rwrist -36.2361
rhand -51.6611 37.9028
rfingers 7.12502
rthumb -24.1826 9.4073
lclavicle -6.93758e-014 -6.36111e-015
lhumerus 74.6303 -27.3319 50.4447
lradius 64.0753
lwrist 18.3296
lhand -40.7958 29.8529
lfingers 7.12502
lthumb -13.7348 59.3796
rfemur 8.5761 2.77636 19.4498
rtibia 27.6909
rfoot -23.2759 -14.2318
rtoes -9.81547
lfemur -11.9626 7.01727 -15.1316
ltibia 35.4538
lfoot -8.51279 17.2053
ltoes -3.4765
852
root 9.68969 17.2303 -3.12249 -10.9681 -31.8264 2.14613
lowerback 5.41498 -1.6092 -0.952915
upperback 4.57022 -2.25868 2.76763
thorax 1.82582 -1.22384 3.4686
lowerneck -7.38197 7.2609 -0.518214
upperneck -5.38709 9.60119 -1.83645
head -0.390485 4.77974 -0.30064
rclavicle 6.60959e-015 -1.59028e-014
rhumerus 41.9763 30.9639 -81.6203
rradius 65.2275
rwrist -36.6857
rhand -51.6817 37.0864
rfingers 7.12502
rthumb -24.2024 8.59357
lclavicle 6.60959e-015 -1.59028e-014
lhumerus 74.2541 -27.6255 50.9038
lradius 63.1519
lwrist 18.2548
lhand -40.3369 30.3272
lfingers 7.12502
lthumb -13.2925 59.8833
rfemur 8.23469 2.54404 19.5179
rtibia 27.6219
rfoot -23.3163 -14.4337
rtoes -9.43402
lfemur -12.6604 6.74637 -15.2065
ltibia 35.6066
lfoot -8.41099 16.9408
ltoes -4.28429
853
root 9.7058 17.2343 -3.13124 -10.5965 -31.242 2.06686
lowerback 5.46224 -1.50638 -0.68155
upperback 4.81265 -2.11011 2.31883
thorax 2.01099 -1.13804 2.84391
lowerneck -7.50308 7.21755 -0.105662
upperneck -5.43604 9.52313 -1.51748
head -0.383579 4.73463 -0.26709
rclavicle 3.51849e-014 9.54166e-015
rhumerus 41.3555 30.9455 -82.5427
rradius 64.8896
rwrist -36.9959
rhand -51.4696 37.0332
rfingers 7.12502
rthumb -23.999 8.51339
lclavicle 3.51849e-014 9.54166e-015
lhumerus 74.2072 -27.9014 50.4936
lradius 62.5208
lwrist 18.5867
lhand -40.0605 30.098
lfingers 7.12502
lthumb -13.0261 59.6713
rfemur 7.85498 2.28023 19.5077
rtibia 27.6182
rfoot -23.245 -14.5917
rtoes -9.30351
lfemur -13.2536 6.45421 -15.3368
ltibia 35.6664
lfoot -8.22428 16.722
ltoes -5.26491
